Coordinates
version=1
nRows=13
nColumns=34
inDegrees=yes

Units are S.I. units (second, meters, Newtons, ...)
If the header above contains a line with 'inDegrees', this indicates whether rotational values are in degrees (yes) or radians (no).

endheader
time	pelvis_tilt	pelvis_list	pelvis_rotation	pelvis_tx	pelvis_ty	pelvis_tz	hip_flexion_r	hip_adduction_r	hip_rotation_r	knee_angle_r	ankle_angle_r	subtalar_angle_r	mtp_angle_r	hip_flexion_l	hip_adduction_l	hip_rotation_l	knee_angle_l	ankle_angle_l	subtalar_angle_l	mtp_angle_l	lumbar_extension	lumbar_bending	lumbar_rotation	arm_flex_r	arm_add_r	arm_rot_r	elbow_flex_r	pro_sup_r	arm_flex_l	arm_add_l	arm_rot_l	elbow_flex_l	pro_sup_l
      0.00000000	      1.53425916	      0.04672031	     -3.68103740	      1.81565542	      0.89055621	     -0.19010982	     -4.09292809	     -3.39867216	     -3.17059377	      2.36783922	      2.11171731	    -14.84443581	      0.00000000	     -6.97997493	     -3.35387549	     -6.93801706	      2.11785760	      6.49911209	     -4.41253542	      0.00000000	    -10.63192767	      1.26799705	     -3.69891217	     14.27554290	     -7.38817375	     16.56243924	     71.74900273	     97.38297889	      9.15920496	     -5.43338144	     40.07837685	     60.26442661	     70.45161370
      0.01666670	      0.51855315	      0.20583799	     -3.49820118	      1.81729162	      0.89046000	     -0.19102645	     -2.72552349	     -3.11947263	     -1.41599222	      2.88752596	      5.01058353	    -13.71271078	      0.00000000	     -5.29815526	     -2.90405100	     -6.65085913	      2.23679775	      7.64544193	     -2.94923616	      0.00000000	     -8.74476293	      1.58166358	     -2.97082060	     12.96977236	     -6.63731527	     12.16338621	     70.36953727	     92.64266253	      9.28315304	     -4.73165150	     40.10261695	     58.44998289	     72.19697019
      0.03333330	      0.27324768	      0.95373813	     -3.53659258	      1.81737038	      0.89068963	     -0.18980386	     -2.75127665	     -3.86429416	     -1.65703204	      2.18731314	      4.86140747	    -13.93033870	      0.00000000	     -5.15427357	     -2.24865615	     -6.64731485	      1.81508164	      7.57135549	     -2.62472372	      0.00000000	     -8.34903815	      0.51236775	     -2.76892790	     12.87486819	     -5.90541448	     11.07837372	     68.99626619	     92.26299741	      9.71554292	     -5.33900805	     39.59400783	     58.50794456	     72.31149011
      0.05000000	      0.97487828	      1.35939450	     -3.52101837	      1.81709643	      0.89322017	     -0.18824574	     -3.82834100	     -4.33775761	     -1.31423976	      1.57143108	      4.95228433	    -14.15825030	      0.00000000	     -6.47292999	     -1.75139504	     -6.26477697	      0.89532371	      7.11504566	     -2.98461067	      0.00000000	     -9.13201101	     -0.23449914	     -2.57699153	     12.74229827	     -5.44108790	     10.47972969	     68.13088840	     91.93245686	     10.35155872	     -5.77208341	     39.38262094	     58.17502709	     72.56948607
      0.06666670	      1.06437964	      1.56016746	     -3.47047664	      1.81691714	      0.89418928	     -0.18715247	     -4.12815545	     -4.44532164	     -1.13433574	      1.18471911	      5.07693600	    -14.27217092	      0.00000000	     -6.83793542	     -1.55251155	     -6.03541385	      0.42808649	      7.17443282	     -3.09421571	      0.00000000	     -9.09397723	     -0.59079084	     -2.62189837	     12.56152601	     -5.21789416	     10.53724186	     68.21954572	     91.87822581	     10.64528838	     -6.06462174	     39.35244216	     58.14741717	     72.64670072
      0.08333330	      1.33615023	      1.75633531	     -3.39005181	      1.81652161	      0.89441509	     -0.18731706	     -4.65823315	     -4.60931779	     -0.87116127	      0.71581338	      5.16875063	    -14.53258344	      0.00000000	     -7.33114273	     -1.28270484	     -5.74484166	      0.00000000	      7.00058302	     -3.28117989	      0.00000000	     -9.44200413	     -0.86701469	     -2.83459357	     12.51620842	     -5.16570390	     10.50202633	     68.46775879	     91.79122808	     10.87674400	     -6.18971901	     39.51503811	     58.19243628	     72.77836114
      0.10000000	      2.42733794	      1.79592799	     -3.27834916	      1.81551648	      0.89469595	     -0.18797534	     -6.21443499	     -4.68469841	     -0.39809587	      0.00000000	      4.83039822	    -15.48919085	      0.00000000	     -8.50084771	     -1.17581139	     -5.05720692	      0.00000000	      6.68327004	     -4.17570760	      0.00000000	    -10.76266699	     -0.83607048	     -3.18567748	     12.80373229	     -5.04425309	     10.33643999	     69.79768800	     91.49901884	     11.32299478	     -6.55910786	     40.20045242	     58.54730675	     73.20743299
      0.11666670	      2.44970079	      1.75412894	     -3.40360746	      1.81513155	      0.89404563	     -0.18809211	     -6.16493550	     -4.66144971	     -0.40923481	      0.00353641	      4.79899612	    -15.51711972	      0.00000000	     -8.53430800	     -1.18276514	     -5.02755064	      0.00000000	      6.68944258	     -4.19795047	      0.00000000	    -10.78637477	     -0.86367292	     -3.28431326	     12.76654201	     -5.10049502	     10.31320329	     69.82814869	     91.48669317	     11.42073826	     -6.52376294	     40.20945522	     58.59627519	     73.22240060
      0.13333330	      3.09485618	      1.71775966	     -3.27482395	      1.81426686	      0.89457243	     -0.18770298	     -6.84820795	     -4.64530299	      0.11642711	      0.00000000	      4.11471232	    -17.06563634	      0.00000000	     -9.17498513	     -1.18527174	     -4.08878147	      0.00000000	      6.54488191	     -5.45648138	      0.00000000	    -11.97965362	     -0.78962282	     -3.34965356	     12.53107427	     -5.35557687	     10.02149881	     72.26735650	     90.95636968	     12.06601738	     -6.90079370	     41.05812258	     59.60671811	     73.84984559
      0.15000000	      3.10161702	      1.72504858	     -3.33180164	      1.81445775	      0.89486226	     -0.18636055	     -6.82862835	     -4.62469280	      0.13531177	      0.00000000	      4.11218753	    -17.07867966	      0.00000000	     -9.19865158	     -1.19915587	     -4.09613266	      0.00000000	      6.49087195	     -5.45766306	      0.00000000	    -11.99272389	     -0.79812822	     -3.40387460	     12.44273741	     -5.40667978	     10.00342882	     72.26327783	     90.94279860	     12.09202342	     -6.91369235	     41.06423749	     59.61306415	     73.86206161
      0.16666670	      3.18033915	      1.68935943	     -3.26905371	      1.81479563	      0.89484838	     -0.18546558	     -6.95536985	     -4.51878587	      0.28997055	      0.00000000	      4.13526814	    -17.19762141	      0.00000000	     -9.29744611	     -1.30666728	     -4.09936693	      0.00000000	      6.17407123	     -5.46366578	      0.00000000	    -11.99130063	     -0.88866781	     -3.48152398	     12.10474423	     -5.51870983	      9.96416630	     72.35310599	     90.87391320	     12.12405498	     -7.10805336	     41.09741990	     59.59967940	     73.91880156
      0.18333330	      3.19605294	      1.69107467	     -3.36812020	      1.81481649	      0.89415108	     -0.18516835	     -6.94917168	     -4.49963487	      0.29101254	      0.00000000	      4.15048122	    -17.24957759	      0.00000000	     -9.34942857	     -1.33239134	     -4.06056608	      0.00000000	      6.10905429	     -5.45384319	      0.00000000	    -11.99691436	     -0.89532209	     -3.52392701	     12.05384262	     -5.54618905	      9.94572582	     72.38418183	     90.85744608	     12.14084141	     -7.12516334	     41.11060201	     59.60240543	     73.93068631
      0.20000000	      3.19829889	      1.70476191	     -3.37161613	      1.81473858	      0.89306279	     -0.18548998	     -6.95084018	     -4.49533892	      0.29182330	      0.00000000	      4.15077825	    -17.25063433	      0.00000000	     -9.35163719	     -1.34132992	     -4.05992460	      0.00000000	      6.10721466	     -5.45369462	      0.00000000	    -11.99760648	     -0.89520288	     -3.52492012	     12.05204676	     -5.54739647	      9.94505549	     72.38475015	     90.85702611	     12.14077412	     -7.12670753	     41.11071884	     59.60201882	     73.93092389
